<svg width="758" height="86" viewBox="0 0 758 86" fill="none" xmlns="http://www.w3.org/2000/svg">
<path d="M23.0977 61.2832C23.0977 64.1478 22.0234 66.5729 19.875 68.5586C17.7591 70.5117 15.0736 71.4883 11.8184 71.4883C8.56315 71.4883 5.86133 70.5117 3.71289 68.5586C1.56445 66.5729 0.490234 64.1478 0.490234 61.2832V28.7148C0.490234 25.8503 1.56445 23.4414 3.71289 21.4883C5.86133 19.5026 8.56315 18.5098 11.8184 18.5098C15.0736 18.5098 17.7591 19.5026 19.875 21.4883C22.0234 23.4414 23.0977 25.8503 23.0977 28.7148V45.8047H8.30273V65.6777C8.30273 68.347 9.47461 69.6816 11.8184 69.6816C14.1296 69.6816 15.2852 68.347 15.2852 65.6777V55.082H23.0977V61.2832ZM15.2852 43.998V24.3203C15.2852 21.651 14.1296 20.3164 11.8184 20.3164C9.47461 20.3164 8.30273 21.651 8.30273 24.3203V43.998H15.2852ZM77.7129 71H67.459V24.3203C67.459 21.7812 66.4824 20.5117 64.5293 20.5117C63.2598 20.5117 62.0553 21.0814 60.916 22.2207V69.1934H63.4551V71H50.6133V69.1934H53.1523V20.8047H50.6133V18.998H60.916V20.4141C62.3809 19.1445 64.3177 18.5098 66.7266 18.5098C72.3906 18.5098 75.2227 21.5697 75.2227 27.6895V69.1934H77.7129V71ZM119.34 71H116.85C113.594 71 110.893 70.0072 108.744 68.0215C106.628 66.0358 105.57 63.627 105.57 60.7949V20.8047H103.031V18.998H105.57V4.49609L113.334 0.980469V18.998H118.949V20.8047H113.334V65.1895C113.334 67.8587 114.506 69.1934 116.85 69.1934H119.34V71ZM169.023 34.916H161.211V24.3203C161.211 21.7812 160.413 20.5117 158.818 20.5117C157.777 20.5117 156.735 21.0814 155.693 22.2207V69.1934H158.232V71H145.391V69.1934H147.93V20.8047H145.391V18.998H155.693V20.4141C157.158 19.1445 158.997 18.5098 161.211 18.5098C166.419 18.5098 169.023 21.5697 169.023 27.6895V34.916ZM219.684 61.2832C219.684 64.1478 218.609 66.5729 216.461 68.5586C214.345 70.5117 211.66 71.4883 208.404 71.4883C205.149 71.4883 202.447 70.5117 200.299 68.5586C198.15 66.5729 197.076 64.1478 197.076 61.2832V28.7148C197.076 25.8503 198.15 23.4414 200.299 21.4883C202.447 19.5026 205.149 18.5098 208.404 18.5098C211.66 18.5098 214.345 19.5026 216.461 21.4883C218.609 23.4414 219.684 25.8503 219.684 28.7148V45.8047H204.889V65.6777C204.889 68.347 206.061 69.6816 208.404 69.6816C210.715 69.6816 211.871 68.347 211.871 65.6777V55.082H219.684V61.2832ZM211.871 43.998V24.3203C211.871 21.651 210.715 20.3164 208.404 20.3164C206.061 20.3164 204.889 21.651 204.889 24.3203V43.998H211.871ZM273.42 20.8047H270.93V75.2969C270.93 78.1615 269.921 80.5703 267.902 82.5234C265.884 84.5091 263.264 85.502 260.041 85.502C257.014 85.502 254.377 84.4928 252.131 82.4746C249.917 80.4889 248.811 78.0964 248.811 75.2969V73.4902H256.623V79.6914C256.623 82.3607 257.762 83.6953 260.041 83.6953C262.092 83.6953 263.117 82.3607 263.117 79.6914V68.6074C261.652 69.877 259.715 70.5117 257.307 70.5117C251.643 70.5117 248.811 67.4355 248.811 61.2832V27.6895C248.811 21.5697 251.643 18.5098 257.307 18.5098C259.715 18.5098 261.652 19.1445 263.117 20.4141V18.998H273.42V20.8047ZM263.117 66.8008V22.2207C261.978 21.0814 260.773 20.5117 259.504 20.5117C257.583 20.5117 256.623 21.7812 256.623 24.3203V64.7012C256.623 67.2402 257.583 68.5098 259.504 68.5098C260.773 68.5098 261.978 67.9401 263.117 66.8008ZM324.666 71H314.363V69.584C312.898 70.8535 311.027 71.4883 308.748 71.4883C303.214 71.4883 300.447 68.4284 300.447 62.3086V50.7852C300.447 44.3398 304.288 41.1172 311.971 41.1172H314.363V24.3203C314.363 21.651 313.387 20.3164 311.434 20.3164C309.513 20.3164 308.553 21.651 308.553 24.3203V34.916H300.74V28.7148C300.74 25.6224 301.701 23.1484 303.621 21.293C305.574 19.4375 308.178 18.5098 311.434 18.5098C314.721 18.5098 317.326 19.4375 319.246 21.293C321.167 23.1484 322.127 25.6224 322.127 28.7148V69.1934H324.666V71ZM314.363 67.7773V42.9238H312.068C309.529 42.9238 308.26 44.2422 308.26 46.8789V65.6777C308.26 68.2168 309.155 69.4863 310.945 69.4863C312.085 69.4863 313.224 68.9167 314.363 67.7773ZM373.08 61.2832C373.08 64.1803 372.12 66.5892 370.199 68.5098C368.148 70.4954 365.512 71.4883 362.289 71.4883C359.066 71.4883 356.43 70.5117 354.379 68.5586C352.328 66.5729 351.303 64.1478 351.303 61.2832V55.082H359.115V65.6777C359.115 68.347 360.173 69.6816 362.289 69.6816C364.307 69.6816 365.316 68.347 365.316 65.6777V58.0117C365.316 54.7891 364.405 52.2826 362.582 50.4922L354.379 42.3867C352.328 40.3685 351.303 37.4062 351.303 33.5V28.7148C351.303 25.8177 352.296 23.3926 354.281 21.4395C356.267 19.4863 358.871 18.5098 362.094 18.5098C365.316 18.5098 367.921 19.4863 369.906 21.4395C371.892 23.3926 372.885 25.8177 372.885 28.7148V34.916H365.121V24.3203C365.121 21.651 364.112 20.3164 362.094 20.3164C360.108 20.3164 359.115 21.651 359.115 24.3203V31.2051C359.115 34.4277 360.01 36.918 361.801 38.6758L370.004 46.7812C372.055 48.832 373.08 51.8105 373.08 55.7168V61.2832ZM462.828 34.916H455.016V24.3203C455.016 21.7812 454.218 20.5117 452.623 20.5117C451.581 20.5117 450.54 21.0814 449.498 22.2207V69.1934H452.037V71H439.195V69.1934H441.734V20.8047H439.195V18.998H449.498V20.4141C450.963 19.1445 452.802 18.5098 455.016 18.5098C460.224 18.5098 462.828 21.5697 462.828 27.6895V34.916ZM514.807 71H504.504V69.584C503.039 70.8535 501.167 71.4883 498.889 71.4883C493.355 71.4883 490.588 68.4284 490.588 62.3086V50.7852C490.588 44.3398 494.429 41.1172 502.111 41.1172H504.504V24.3203C504.504 21.651 503.527 20.3164 501.574 20.3164C499.654 20.3164 498.693 21.651 498.693 24.3203V34.916H490.881V28.7148C490.881 25.6224 491.841 23.1484 493.762 21.293C495.715 19.4375 498.319 18.5098 501.574 18.5098C504.862 18.5098 507.466 19.4375 509.387 21.293C511.307 23.1484 512.268 25.6224 512.268 28.7148V69.1934H514.807V71ZM504.504 67.7773V42.9238H502.209C499.67 42.9238 498.4 44.2422 498.4 46.8789V65.6777C498.4 68.2168 499.296 69.4863 501.086 69.4863C502.225 69.4863 503.365 68.9167 504.504 67.7773ZM512.414 2.00586L502.014 16.0195H499.816L503.918 0.980469H512.414V2.00586ZM564.734 62.3086C564.734 68.4284 561.902 71.4883 556.238 71.4883C553.829 71.4883 551.893 70.8535 550.428 69.584V83.207H552.967V85.0137H540.125V83.207H542.664V20.8047H540.125V18.998H550.428V20.4141C551.893 19.1445 553.829 18.5098 556.238 18.5098C561.902 18.5098 564.734 21.5697 564.734 27.6895V62.3086ZM556.922 65.6777V24.3203C556.922 21.7812 555.962 20.5117 554.041 20.5117C552.771 20.5117 551.567 21.0814 550.428 22.2207V67.7773C551.567 68.9167 552.771 69.4863 554.041 69.4863C555.962 69.4863 556.922 68.2168 556.922 65.6777ZM602.992 12.9922H595.18V0.980469H602.992V12.9922ZM605.482 71H592.689V69.1934H595.18V20.8047H592.689V18.998H602.992V69.1934H605.482V71ZM657.803 71H647.5V69.584C646.035 70.8535 644.098 71.4883 641.689 71.4883C636.025 71.4883 633.193 68.4284 633.193 62.3086V27.6895C633.193 21.5697 636.025 18.5098 641.689 18.5098C644.098 18.5098 646.035 19.1445 647.5 20.4141V2.78711H645.01V0.980469H655.312V69.1934H657.803V71ZM647.5 67.7773V22.2207C646.361 21.0814 645.156 20.5117 643.887 20.5117C641.966 20.5117 641.006 21.7812 641.006 24.3203V65.6777C641.006 68.2168 641.966 69.4863 643.887 69.4863C645.156 69.4863 646.361 68.9167 647.5 67.7773ZM709.049 71H698.746V69.584C697.281 70.8535 695.41 71.4883 693.131 71.4883C687.597 71.4883 684.83 68.4284 684.83 62.3086V50.7852C684.83 44.3398 688.671 41.1172 696.354 41.1172H698.746V24.3203C698.746 21.651 697.77 20.3164 695.816 20.3164C693.896 20.3164 692.936 21.651 692.936 24.3203V34.916H685.123V28.7148C685.123 25.6224 686.083 23.1484 688.004 21.293C689.957 19.4375 692.561 18.5098 695.816 18.5098C699.104 18.5098 701.708 19.4375 703.629 21.293C705.549 23.1484 706.51 25.6224 706.51 28.7148V69.1934H709.049V71ZM698.746 67.7773V42.9238H696.451C693.912 42.9238 692.643 44.2422 692.643 46.8789V65.6777C692.643 68.2168 693.538 69.4863 695.328 69.4863C696.467 69.4863 697.607 68.9167 698.746 67.7773ZM757.463 61.2832C757.463 64.1803 756.503 66.5892 754.582 68.5098C752.531 70.4954 749.895 71.4883 746.672 71.4883C743.449 71.4883 740.812 70.5117 738.762 68.5586C736.711 66.5729 735.686 64.1478 735.686 61.2832V55.082H743.498V65.6777C743.498 68.347 744.556 69.6816 746.672 69.6816C748.69 69.6816 749.699 68.347 749.699 65.6777V58.0117C749.699 54.7891 748.788 52.2826 746.965 50.4922L738.762 42.3867C736.711 40.3685 735.686 37.4062 735.686 33.5V28.7148C735.686 25.8177 736.678 23.3926 738.664 21.4395C740.65 19.4863 743.254 18.5098 746.477 18.5098C749.699 18.5098 752.303 19.4863 754.289 21.4395C756.275 23.3926 757.268 25.8177 757.268 28.7148V34.916H749.504V24.3203C749.504 21.651 748.495 20.3164 746.477 20.3164C744.491 20.3164 743.498 21.651 743.498 24.3203V31.2051C743.498 34.4277 744.393 36.918 746.184 38.6758L754.387 46.7812C756.438 48.832 757.463 51.8105 757.463 55.7168V61.2832Z" fill="white"/>
</svg>
