<svg width="796" height="259" viewBox="0 0 796 259" fill="none" xmlns="http://www.w3.org/2000/svg">
<path d="M118.5 258.2C80.5 258.2 51.2 250.7 30.6 235.7C10.2 220.7 2.12342e-07 199.7 2.12342e-07 172.7C2.12342e-07 161.7 2 151.5 6 142.1C10.2 132.7 16.8 125.1 25.8 119.3C34.8 113.3 46.5 110.3 60.9 110.3C66.1 110.3 71.6 110.8 77.4 111.8C83.2 112.6 88.8 114.8 94.2 118.4C99.8 121.8 104.8 127.3 109.2 134.9C113.8 142.5 117.3 152.9 119.7 166.1L127.8 164.6C125.8 149.6 120.8 136.4 112.8 125C105 113.4 94.3 104.4 80.7 98C67.1 91.4 50.7 88.1 31.5 88.1C29.7 84.5 28.3 79.6 27.3 73.4C26.3 67.2 25.8 60.6 25.8 53.6C26 46.4 26.6 39.5 27.6 32.9C28.8 26.1 30.5 20.3 32.7 15.5C66.1 17.3 93.3 18.5 114.3 19.1C135.5 19.7 152.9 20 166.5 20C177.5 20 188.5 19.8 199.5 19.4C210.5 18.8 220.7 18.1 230.1 17.3C239.7 16.5 247.5 15.9 253.5 15.5C255.5 20.3 257 26.1 258 32.9C259 39.5 259.5 46.4 259.5 53.6C259.5 60.8 259.1 67.5 258.3 73.7C257.5 79.9 256.2 84.8 254.4 88.4C251.4 88.4 248.4 89.2 245.4 90.8C242.4 92.4 239.9 95.6 237.9 100.4C235.9 105 234.9 112.2 234.9 122C234.9 131.4 235.5 140.3 236.7 148.7C238.1 157.1 238.8 165 238.8 172.4C238.8 192.8 233.9 209.3 224.1 221.9C214.5 234.5 200.7 243.7 182.7 249.5C164.7 255.3 143.3 258.2 118.5 258.2ZM392.911 258.2C360.311 258.2 333.711 253.7 313.111 244.7C292.711 235.5 277.711 222.4 268.111 205.4C258.511 188.4 253.711 167.9 253.711 143.9C253.711 116.3 258.811 94.1 269.011 77.3C279.411 60.5 295.511 48.3 317.311 40.7C339.111 32.9 367.211 29 401.611 29C427.211 29 450.011 31.7 470.011 37.1C490.211 42.5 506.111 50.5 517.711 61.1C529.311 71.5 535.111 84.4 535.111 99.8C535.111 105.4 534.211 111.1 532.411 116.9C530.811 122.5 527.411 127.6 522.211 132.2C517.011 136.8 509.211 140.5 498.811 143.3C488.411 146.1 474.511 147.5 457.111 147.5C445.511 147.5 435.011 147.4 425.611 147.2C416.411 146.8 407.911 146.2 400.111 145.4H385.111V167.6H399.811V155.6C442.211 153.6 487.011 153.6 534.211 155.6C534.211 177.8 529.411 196.5 519.811 211.7C510.211 226.9 495.111 238.5 474.511 246.5C453.911 254.3 426.711 258.2 392.911 258.2ZM385.111 129.8H399.811V112.4H385.111V129.8ZM546.506 253.1C544.906 249.1 543.606 244 542.606 237.8C541.606 231.4 541.006 224.7 540.806 217.7C540.806 210.7 541.006 204.1 541.406 197.9C542.006 191.5 543.006 186.3 544.406 182.3C547.206 181.3 549.906 179.5 552.506 176.9C555.306 174.3 557.606 170.1 559.406 164.3C561.206 158.3 562.306 149.8 562.706 138.8H543.206C542.206 133.2 541.506 126.6 541.106 119C540.706 111.4 540.706 103.9 541.106 96.5C541.506 88.9 542.206 82.3 543.206 76.7H585.806C577.006 75.7 570.406 72.1 566.006 65.9C561.606 59.5 560.906 52 563.906 43.4C567.906 31.6 579.706 21.6 599.306 13.4C619.106 4.99998 646.506 0.799982 681.506 0.799982C709.106 0.799982 731.206 3.39998 747.806 8.59999C764.406 13.8 776.406 21.7 783.806 32.3C791.406 42.9 795.206 56.3 795.206 72.5C795.206 84.7 792.206 95.2 786.206 104C780.406 112.8 772.706 119.5 763.106 124.1C753.506 128.7 742.906 131 731.306 131C723.706 131 715.706 130 707.306 128C698.906 126 691.106 122.6 683.906 117.8L679.106 124.7C686.106 129.5 694.006 133.2 702.806 135.8C711.806 138.4 721.306 139.7 731.306 139.7C739.306 139.7 746.806 138.7 753.806 136.7C761.006 134.7 767.406 132 773.006 128.6C774.806 134 775.906 140.1 776.306 146.9C776.906 153.5 777.106 159.9 776.906 166.1C776.706 172.1 776.106 176.9 775.106 180.5H691.406C692.406 184.5 695.406 187.3 700.406 188.9C705.406 190.5 713.706 191 725.306 190.4C727.106 195.6 728.206 202.1 728.606 209.9C729.006 217.7 728.706 225.5 727.706 233.3C726.906 241.1 725.406 247.7 723.206 253.1C714.006 252.1 702.506 251.1 688.706 250.1C674.906 249.1 659.806 248.6 643.406 248.6C627.006 248.6 611.106 248.9 595.706 249.5C580.506 250.3 564.106 251.5 546.506 253.1Z" fill="url(#paint0_linear_1_5)"/>
<defs>
<linearGradient id="paint0_linear_1_5" x1="397.5" y1="-73" x2="397.5" y2="401" gradientUnits="userSpaceOnUse">
<stop stop-color="#87FDDA"/>
<stop offset="1" stop-color="#519782"/>
</linearGradient>
</defs>
</svg>
